<svg xmlns="http://www.w3.org/2000/svg" xmlns:xlink="http://www.w3.org/1999/xlink" viewBox="0 0 1920 1080"><defs><style>.a,.ab,.ad,.ae,.af,.ag,.ai,.am,.ao,.ap,.aq,.ar,.at,.au,.aw,.d,.g,.i,.o,.p,.t,.u,.x,.z{fill:none;}.b{clip-path:url(#f);}.c{clip-path:url(#a);}.d,.f,.g{stroke:#adbbf9;}.af,.am,.aq,.aw,.d,.f,.g{stroke-linejoin:round;}.d{stroke-dasharray:3.5 3.5;}.e{fill:#e4e9f9;}.f,.m{fill:#fff;}.h{fill:#849cf4;}.h,.u{stroke:#849cf4;}.ab,.ad,.ae,.ag,.ai,.ao,.ap,.ar,.at,.au,.h,.i,.p,.t,.u,.x,.z{stroke-miterlimit:10;}.i{stroke:#4643bf;}.j{clip-path:url(#b);}.k{fill:url(#c);}.l{fill:url(#d);}.n{fill:#d3dbf4;}.o,.p{stroke:#fff;}.q{fill:#e3eafc;}.r{fill:#f0f1ff;}.s{fill:#c2cfef;}.t{stroke:#d3dbf4;}.v{fill:#ffcbbd;}.w{fill:#f7471e;}.x{stroke:#b22b19;}.ao,.ap,.au,.x,.z{stroke-width:0.75px;}.y{fill:#0e32ae;}.z{stroke:#121649;}.aa,.av{fill:#ffcbbb;}.ab,.ai{stroke:#ef977f;}.ac{fill:#4a1a1a;}.ad,.ag{stroke:#f7a794;}.ad,.af,.ai,.am,.at,.aw{stroke-width:0.5px;}.ae,.af{stroke:#212237;}.af,.at,.aw{stroke-linecap:round;}.ah{fill:#adbbf9;}.aj{fill:#18277a;}.ak{fill:#0d219b;}.al{fill:#212237;}.am{stroke:#e88872;}.an{fill:#28364c;}.ao,.at,.aw{stroke:#28364c;}.ap{stroke:#525bce;}.aq{stroke:#f49c8e;}.ar{stroke:#0e32ae;}.as{fill:#e23917;}.au{stroke:#5565aa;}.av{fill-rule:evenodd;}.ax{fill:#14122d;}.ay{stroke:none;}</style><clipPath id="a"><rect width="1920" height="1146.988" transform="translate(0 -37)"/></clipPath><clipPath id="b"><rect class="a" width="499.622" height="776.584" rx="9.831"/></clipPath><linearGradient id="c" x1="-0.276" y1="0.869" x2="1.276" y2="0.131" gradientUnits="objectBoundingBox"><stop offset="0.27" stop-color="#fff" stop-opacity="0.102"/><stop offset="1" stop-color="#fff" stop-opacity="0.302"/></linearGradient><linearGradient id="d" x1="-0.355" y1="0.853" x2="1.355" y2="0.147" xlink:href="#c"/><clipPath id="f"><rect width="1920" height="1080"/></clipPath></defs><g id="e" class="b"><g class="c" transform="translate(0 -29.987)"><path class="a" d="M0,0H1920V1108.994H0Z" transform="translate(0 0.993)"/><rect class="a" width="1920" height="1108.994" transform="translate(0 0.993)"/><path class="d" d="M541.038,699.511c-14.751-44.138-56.942-78.073-111.36-79.222-31.647-.665-62.341,11.09-89.283,24.5-36.38,18.1-79.27,39.953-122.8,34.459-27.878-3.52-60.913-17.078-67.456-45.083C143.23,604.531,170.86,584.2,200.4,572.288c25.313-10.214,60.831-34.641,72.2-58.025C317.719,421.527,191.58,315.687,227.18,210c37.256-110.6,209.764-129.309,296.481-54.2a230.993,230.993,0,0,1,23.16,23.02c17.7,20.361,28.109,48.09,52.708,63.37,31.857,19.776,73.124,13.448,107.433,1.7,65.567-22.446,82.908-37.262,147.013-61.438,46.108-17.387,102.912-32.9,154.708-17.449,37.12,11.072,78.124,30.976,98.885,59.8,38.6,53.591,21.271,111.323,82.3,187.531,27.648,34.527,71.6,44.207,106.621,69.157,90.785,64.681,60.434,201.032-38.576,247.694-81.3,38.313-181.4,29.559-269.568,19.74q-10.138-1.127-20.25-2.418" transform="translate(232.548 135.667)"/><path class="e" d="M714.3,268.368a125.692,125.692,0,0,0,32.75-53.735l-30.265-9.3a89.054,89.054,0,0,0,2.921-27.319l31.767-4.279a119.086,119.086,0,0,0-20.7-58.067L701.759,127.65a107.033,107.033,0,0,0-20.188-21.133l18.944-22.462A159.2,159.2,0,0,0,638.509,55.68L627.772,81.9a135.654,135.654,0,0,0-31.529-2.533L591.3,51.85a168.7,168.7,0,0,0-67.021,17.928l13.824,25.145a116.11,116.11,0,0,0-24.392,17.491L487.789,96a125.677,125.677,0,0,0-32.768,53.733l30.264,9.3a89.03,89.03,0,0,0-2.921,27.317L450.6,190.63a119.088,119.088,0,0,0,20.7,58.065l29.02-11.977A107.134,107.134,0,0,0,520.5,257.852l-18.944,22.459A159.237,159.237,0,0,0,563.58,308.7l10.729-26.223a135.67,135.67,0,0,0,31.529,2.533l4.941,27.521A168.662,168.662,0,0,0,677.8,294.6l-13.824-25.145a116.026,116.026,0,0,0,24.392-17.491ZM565.876,239.882c-36.781-16.83-50.85-56.307-31.424-88.174s64.99-44.057,101.771-27.226,50.85,56.308,31.424,88.175-64.99,44.056-101.77,27.226Zm10.168-16.693c-26.123-11.96-36.112-40-22.312-62.637s46.164-31.294,72.292-19.341,36.127,39.992,22.335,62.631S602.18,235.155,576.045,223.19Z" transform="translate(702.931 64.146)"/><path class="e" d="M387.5,247.669a75.108,75.108,0,0,0,16.358-34.858l-19.307-4.11a54.909,54.909,0,0,0-.146-16.988l19.269-4.334a76.014,76.014,0,0,0-16.9-34.669l-17.029,8.932A69.248,69.248,0,0,0,355.8,149.7l10.074-14.861a101.591,101.591,0,0,0-40.23-14.171L320.9,137.4a84.186,84.186,0,0,0-19.6.124l-5-16.693a101.9,101.9,0,0,0-40.015,14.628l10.309,14.752A68.929,68.929,0,0,0,252.8,162.289l-17.152-8.73A75.16,75.16,0,0,0,219.3,188.417l19.308,4.11a54.909,54.909,0,0,0,.143,16.988l-19.267,4.334a76,76,0,0,0,16.881,34.669l17.029-8.932a69.18,69.18,0,0,0,13.942,11.942l-10.074,14.861a101.583,101.583,0,0,0,40.233,14.171l4.744-16.728a84.181,84.181,0,0,0,19.6-.124l5,16.693a101.919,101.919,0,0,0,40.018-14.639l-10.312-14.752a68.867,68.867,0,0,0,13.786-12.081Zm-93.473-9.622c-23.858-8.4-35.334-31.974-25.634-52.645s36.9-30.614,60.762-22.21,35.335,31.973,25.636,52.644-36.9,30.611-60.754,22.211Zm5.082-10.833c-16.953-5.972-25.109-22.72-18.217-37.408s26.223-21.755,43.176-15.783,25.109,22.72,18.217,37.408-26.216,21.749-43.167,15.783Z" transform="translate(342.103 147.967)"/><path class="e" d="M384.6,160.114a54.5,54.5,0,0,0,14.2-23.289l-13.12-4.028a38.507,38.507,0,0,0,1.267-11.842l13.77-1.856a51.631,51.631,0,0,0-8.96-25.17l-12.58,5.195a46.417,46.417,0,0,0-8.753-9.16l8.213-9.737a69,69,0,0,0-26.893-12.314l-4.651,11.365a58.84,58.84,0,0,0-13.668-1.1l-2.14-11.928a73.1,73.1,0,0,0-29.051,7.763l5.993,10.9a50.326,50.326,0,0,0-10.573,7.581L286.41,85.379a54.5,54.5,0,0,0-14.2,23.289l13.117,4.03a38.652,38.652,0,0,0-1.265,11.84l-13.77,1.856a51.607,51.607,0,0,0,8.96,25.17l12.58-5.195a46.368,46.368,0,0,0,8.753,9.162l-8.212,9.735a69.057,69.057,0,0,0,26.88,12.3l4.651-11.367a58.837,58.837,0,0,0,13.668,1.109l2.14,11.931a73.135,73.135,0,0,0,29.051-7.763l-5.993-10.9A50.32,50.32,0,0,0,373.345,153Zm-60.07-19.35c-11.48-5.253-15.871-17.573-9.808-27.519s20.284-13.75,31.763-8.5,15.87,17.574,9.807,27.52-20.283,13.749-31.762,8.5Z" transform="translate(421.66 81.686)"/><path class="f" d="M327.586,233.175c-.087-1.479-.228-3.052-.443-4.733-1.756-13.772-12.646-12.507-19.423-12.088s-15.2.639-18.432-5.767c-1.411-2.788-1.349-6.153-2.276-9.165-1.818-6.155-8.127-10.52-15.457-10.693-6.548-.013-12.746,3.238-18.112,7.271-2.785,2.094-5.926,4.547-9.247,3.757a9.507,9.507,0,0,1-5.12-4.132c-7.762-10.917-7.713-26.789-16.212-37.056-9.382-11.334-26.906-11.562-38.769-3.338s-18.673,22.885-21.78,37.677c-1.011,4.809-1.884,10.081-5.309,13.363-4.892,4.689-12.385,3.138-18.918,2.5a30.308,30.308,0,0,0-21.819,5.148,20.348,20.348,0,0,0-7.66,17.254Z" transform="translate(169.333 185.524)"/><path class="f" d="M368.877,120.091H584.368s-8.64-8.7-18.414-11.671c-12.3-3.735-17.408,6.754-25.18-6.809C536.421,94,533.349,83.982,521.9,81.383c-17.92-4.068-22.482,8.765-31.022,5.3-7.5-3.045-7.265-15.229-14.833-25.414-7.4-9.957-25.426-16.08-37.724-10.888-22.469,9.486-19.551,24.578-26.911,29.552-7.263,4.908-23.921-12.379-42.534,6.315C356.039,99.131,368.877,120.091,368.877,120.091Z" transform="translate(566.547 60.051)"/><path class="g" d="M464.813,56.349c.007,4.534-4.231,8.214-9.464,8.218s-9.478-3.669-9.481-8.2,4.239-8.21,9.472-8.21,9.465,3.668,9.472,8.2Z" transform="translate(695.556 59.644)"/><path class="g" d="M708.228,354.041c0,4.525-4.233,8.193-9.455,8.2s-9.459-3.663-9.463-8.188,4.224-8.2,9.446-8.2,9.465,3.668,9.472,8.2Z" transform="translate(1075.323 422.23)"/><path class="g" d="M531.823,200.992c0,4.532-4.241,8.207-9.472,8.207s-9.472-3.674-9.472-8.207,4.241-8.207,9.472-8.207S531.823,196.459,531.823,200.992Z" transform="translate(800.091 235.803)"/><path class="g" d="M74.95,244.788c0,4.526-4.235,8.2-9.459,8.2s-9.459-3.669-9.459-8.2,4.235-8.2,9.459-8.2,9.459,3.669,9.459,8.2Z" transform="translate(87.41 289.161)"/><path class="g" d="M225.639,106.314c0,4.526-4.235,8.2-9.459,8.2s-9.459-3.669-9.459-8.2,4.235-8.2,9.459-8.2S225.632,101.791,225.639,106.314Z" transform="translate(322.485 120.501)"/><path class="g" d="M265.7,88.074c0,3.077-2.88,5.572-6.432,5.572s-6.43-2.495-6.43-5.572,2.881-5.572,6.433-5.571S265.7,85,265.7,88.074Z" transform="translate(394.429 101.48)"/><path class="g" d="M674.646,265.823c0,3.077-2.879,5.571-6.43,5.572s-6.431-2.494-6.431-5.571,2.879-5.572,6.431-5.572,6.431,2.495,6.431,5.572Z" transform="translate(1032.385 317.976)"/><ellipse class="g" cx="6.431" cy="5.572" rx="6.431" ry="5.572" transform="translate(1233.59 393.892)"/><path class="g" d="M593.494,119.532c0,3.077-2.877,5.573-6.429,5.574s-6.432-2.493-6.432-5.571,2.88-5.573,6.431-5.572,6.428,2.493,6.43,5.569Z" transform="translate(905.788 139.799)"/><path class="g" d="M588.148,303.477c0,3.077-2.877,5.573-6.429,5.574s-6.432-2.493-6.432-5.571,2.88-5.573,6.432-5.572,6.428,2.493,6.43,5.569Z" transform="translate(897.448 363.842)"/><path class="g" d="M198.434,327.517c0,3.076-2.878,5.569-6.428,5.569s-6.428-2.494-6.428-5.569,2.878-5.569,6.428-5.569,6.427,2.494,6.428,5.569Z" transform="translate(289.502 393.122)"/><path class="g" d="M205.969,212.805c0,3.077-2.877,5.573-6.429,5.574s-6.432-2.493-6.432-5.571,2.88-5.573,6.432-5.572,6.428,2.493,6.43,5.569Z" transform="translate(301.249 253.404)"/><rect class="e" width="14.213" height="12.314" rx="1.094" transform="translate(1735.158 491.816)"/><rect class="e" width="14.213" height="12.314" rx="1.094" transform="translate(411.315 748.18)"/><rect class="e" width="14.213" height="12.314" rx="1.094" transform="translate(396.352 294.504)"/><rect class="e" width="27.277" height="23.633" rx="2.099" transform="translate(1490.929 195.125)"/><rect class="e" width="14.213" height="12.314" rx="1.094" transform="translate(1347.169 563.471)"/><path class="f" d="M454.169,250.708c.072-1.06.187-2.189.364-3.4,1.441-9.881,10.381-8.974,15.944-8.675s12.48.459,15.14-4.137a36.648,36.648,0,0,0,1.866-6.576c1.894-4.65,7-7.737,12.69-7.674a27.581,27.581,0,0,1,14.848,5.21c14.29,9.375,18.391-15.3,25.155-22.457,7.7-8.133,22.041-12.689,31.78-6.787s15.329,16.413,17.879,27.035c.829,3.449,1.126,7.679,4.352,9.588,9.449,5.578,21.611-5.246,33.024,3.161,4,2.943,4.754,10.072,4.245,14.708Z" transform="translate(708.504 236.719)"/><path class="f" d="M217.7,553.627c-32.095-41.951-99.29-147.94-41.05-184.412,31.982-20.031,74.378-1.805,94.879,42.364,19.456,41.949,26.911,91.5,35.026,141.452" transform="translate(239.785 440.824)"/><line class="f" x2="75.661" y2="190.831" transform="translate(432.95 803.748)"/><path class="f" d="M163.347,526.121c-27.689-31.032-88.218-109.429-37.975-136.406,27.589-14.816,61.606-1.331,79.288,31.34,16.794,31.03,23.217,67.684,30.208,104.634" transform="translate(165.462 468.363)"/><line class="f" x2="65.27" y2="141.159" transform="translate(305.078 853.419)"/><path class="f" d="M310.552,620.5C234.686,501.265,185.688,383.056,246.9,326.9c60.672-55.645,124.106,10.294,139.543,68.725,18.908,71.561,21.65,149.024,21.276,224.879" transform="translate(342.041 373.542)"/><line class="g" x2="91.133" y2="307.917" transform="translate(611.402 685.953)"/><path class="f" d="M251.093,579.143c-30.139-63.073-97.928-190.669-50.12-230.107,30.574-25.221,85.78,5.7,114.176,60.815C342.126,462.195,350.221,516.079,366.4,578.4" transform="translate(287.657 415.274)"/><path class="f" d="M443.707,640.411c-25.569-253.84,36.667-346.578,104.747-350.737,32.256-1.972,126.72,14.118,12.662,350.582" transform="translate(683.031 353.653)"/><line class="f" x1="60.157" y2="349.996" transform="translate(1184.602 643.913)"/><path class="f" d="M518.747,567.49C539.6,416.616,609.855,329.662,673.325,353.266c51.917,19.3,25.126,103.294-55.747,214.133" transform="translate(809.245 426.592)"/><line class="f" x1="103.849" y2="214.133" transform="translate(1378.719 779.858)"/><line class="f" x2="92.769" y2="238.117" transform="translate(505.155 756.462)"/><path class="f" d="M609.095,623.683c41.021-75.338,123.743-247.368,61.44-308.362-34.209-33.492-96.819,7.632-130.028,81.5C508.973,466.96,485.365,539.171,465.8,622.694" transform="translate(726.642 370.679)"/><line class="f" x1="109.693" y2="319.095" transform="translate(1269.028 675.484)"/><path class="f" d="M550.062,510.223c54.078-94.976,101.007-120.1,145.093-112.51,34.273,5.9,39.636,49.772-32.809,112.452" transform="translate(858.097 483.859)"/><line class="f" x1="82.619" y2="111.809" transform="translate(1466.388 882.209)"/><g class="h" transform="translate(710.188 218.106)"><rect class="ay" width="499.622" height="776.584" rx="9.831"/><rect class="a" x="0.5" y="0.5" width="498.622" height="775.584" rx="9.331"/></g><path class="i" d="M411.734,442.818c0,10.922-10.219,19.776-22.825,19.776s-22.825-8.854-22.825-19.776,10.219-19.776,22.825-19.776,22.825,8.854,22.825,19.776Z" transform="translate(571.091 516.254)"/><g class="j" transform="translate(710.188 218.106)"><path class="k" d="M649.065,59.952,275.18,940.26H383.854L757.74,59.952Z" transform="translate(-280.907 -144.091)"/><path class="l" d="M704.643,59.952,330.758,940.26h46.08L750.718,59.952Z" transform="translate(-194.205 -144.091)"/></g><rect class="m" width="491.658" height="631.929" transform="translate(714.171 290.434)"/><path class="i" d="M365.711,112.414h69.24a2.607,2.607,0,0,1,2.773,2.4h0a2.607,2.607,0,0,1-2.773,2.4h-69.24a2.607,2.607,0,0,1-2.773-2.4h0a2.607,2.607,0,0,1,2.772-2.4Z" transform="translate(566.183 137.912)"/><ellipse class="i" cx="2.86" cy="2.477" rx="2.86" ry="2.477" transform="translate(913.533 250.251)"/><rect class="n" width="212.234" height="185.816" transform="translate(747.766 535.151)"/><path class="o" d="M37.524.205c21.107.509,38.631,20.528,39.14,44.713S60.475,88.3,39.368,87.788.737,67.26.228,43.075,16.417-.3,37.524.205Z" transform="matrix(0.159, -0.987, 0.987, 0.159, 804.322, 632.303)"/><ellipse class="p" cx="30.269" cy="38.07" rx="30.269" ry="38.07" transform="translate(823.613 563.289)"/><ellipse class="p" cx="11.791" cy="38.07" rx="11.791" ry="38.07" transform="translate(842.089 563.289)"/><line class="p" x2="87.877" transform="translate(809.943 601.356)"/><path class="p" d="M318.182,280.548c8.4-2.44,22.879-4.037,39.337-4.037s30.932,1.606,39.329,4.034" transform="translate(496.364 337.78)"/><path class="p" d="M323.161,286.51a91.641,91.641,0,0,1,52.872-.1" transform="translate(504.131 345.153)"/><path class="p" d="M318.182,263.121c8.4,2.44,22.879,4.037,39.337,4.037s30.932-1.606,39.329-4.035" transform="translate(496.364 321.472)"/><path class="p" d="M323.161,257.109a91.642,91.642,0,0,0,52.872.1" transform="translate(504.131 314.149)"/><rect class="q" width="176.128" height="9.828" transform="translate(941.947 687.749) rotate(180)"/><rect class="q" width="105.257" height="9.828" transform="translate(941.947 669.475) rotate(180)"/><rect class="q" width="58.908" height="9.828" transform="translate(765.819 659.647)"/><rect class="q" width="176.128" height="9.828" transform="translate(941.947 706.023) rotate(180)"/><rect class="r" width="212.234" height="185.816" transform="translate(959.78 535.151)"/><rect class="e" width="176.128" height="9.828" transform="translate(1153.961 578.101) rotate(180)"/><rect class="e" width="176.128" height="9.828" transform="translate(1153.961 596.375) rotate(180)"/><rect class="e" width="54.845" height="9.828" transform="translate(1032.678 614.651) rotate(180)"/><rect class="e" width="106.373" height="9.828" transform="translate(1153.72 614.651) rotate(180)"/><rect class="e" width="176.128" height="9.828" transform="translate(1153.961 632.925) rotate(180)"/><rect class="e" width="176.128" height="9.828" transform="translate(1153.961 651.199) rotate(180)"/><rect class="e" width="176.128" height="9.828" transform="translate(1153.961 669.475) rotate(180)"/><rect class="e" width="50.86" height="9.828" transform="translate(1153.961 687.749) rotate(180)"/><rect class="e" width="113.126" height="9.828" transform="translate(1090.962 687.749) rotate(180)"/><rect class="e" width="176.128" height="9.828" transform="translate(1153.961 706.023) rotate(180)"/><rect class="e" width="46.648" height="9.828" transform="translate(1153.961 559.827) rotate(180)"/><rect class="e" width="117.519" height="9.828" transform="translate(977.833 549.999)"/><rect class="r" width="212.234" height="185.816" transform="translate(747.766 720.968)"/><rect class="e" width="176.128" height="9.828" transform="translate(765.819 863.786)"/><rect class="e" width="176.128" height="9.828" transform="translate(765.819 845.51)"/><rect class="e" width="45.294" height="9.828" transform="translate(896.65 827.236)"/><rect class="e" width="115.924" height="9.828" transform="translate(766.06 827.236)"/><rect class="e" width="176.128" height="9.828" transform="translate(765.819 808.962)"/><rect class="e" width="176.128" height="9.828" transform="translate(765.819 790.686)"/><rect class="e" width="176.128" height="9.828" transform="translate(765.819 772.412)"/><rect class="e" width="81.838" height="9.828" transform="translate(765.819 754.136)"/><rect class="e" width="82.148" height="9.828" transform="translate(859.799 754.136)"/><rect class="e" width="176.128" height="9.828" transform="translate(765.819 735.862)"/><rect class="e" width="82.084" height="9.828" transform="translate(765.819 882.06)"/><rect class="e" width="82.084" height="9.828" transform="translate(941.947 891.888) rotate(180)"/><rect class="n" width="212.234" height="185.816" transform="translate(959.78 720.968)"/><path class="s" d="M490.917,411.941l-85.135-.874-9.533-53.01,102.886-.158Z" transform="translate(618.147 436.911)"/><path class="s" d="M499.134,377.98l-102.886.157,51.369-36.723Z" transform="translate(618.147 416.832)"/><path class="m" d="M0,0,70.218.019l.016,51.389L.016,51.389Z" transform="translate(1029.967 789.712) rotate(-0.115)"/><path class="q" d="M396.248,357.972l.118,57.956,51.389-27.011Z" transform="translate(618.147 436.999)"/><path class="q" d="M467.747,357.9l.12,57.956L416.368,389Z" transform="translate(649.534 436.911)"/><path class="q" d="M499.183,404.111l-102.889.158,51.369-36.723Z" transform="translate(618.219 448.659)"/><path class="t" d="M396.294,404.266l51.369-36.723,51.52,36.566" transform="translate(618.219 448.656)"/><line class="t" y1="26.638" x2="44.004" transform="translate(1073.277 794.814)"/><line class="t" x1="44.119" y1="26.507" transform="translate(1014.395 794.971)"/><rect class="q" width="82.084" height="9.828" transform="translate(1106.939 884.902) rotate(180)"/><rect class="n" width="424.471" height="185.397" transform="translate(747.766 333.275)"/><rect class="q" width="199.941" height="12.827" transform="translate(1153.961 372.761) rotate(180)"/><rect class="q" width="199.941" height="12.827" transform="translate(1153.961 396.611) rotate(180)"/><rect class="q" width="199.941" height="12.827" transform="translate(1153.961 420.461) rotate(180)"/><rect class="q" width="199.941" height="12.827" transform="translate(1153.961 444.311) rotate(180)"/><rect class="q" width="199.941" height="12.827" transform="translate(1153.961 492.014) rotate(180)"/><rect class="q" width="119.488" height="12.827" transform="translate(1153.961 468.164) rotate(180)"/><rect class="q" width="66.875" height="12.827" transform="translate(954.02 455.337)"/><rect class="q" width="151.237" height="131.032" transform="translate(772.099 360.458)"/><path class="m" d="M364.663,180.536l46.036,68.2h-92.06Z" transform="translate(497.077 220.884)"/><path class="m" d="M335.115,190.64l9.828,16.413-17.605,29.384H307.685Z" transform="translate(479.989 233.191)"/><path class="m" d="M309.2,182.814c0,4.079,3.817,7.386,8.525,7.386s8.525-3.307,8.525-7.386-3.817-7.386-8.525-7.386S309.2,178.734,309.2,182.814Z" transform="translate(482.352 214.663)"/><path class="n" d="M332.388,149.455H571.809c3.761,0,6.81-2.641,6.81-5.9h0c0-3.258-3.049-5.9-6.81-5.9H332.388c-3.761,0-6.81,2.642-6.81,5.9h0C325.578,146.813,328.627,149.455,332.388,149.455Z" transform="translate(507.902 168.656)"/><line class="p" y2="371.633" transform="translate(960 535.151)"/><line class="p" x2="424.471" transform="translate(747.766 720.968)"/><line class="u" x2="1427.323" transform="translate(246.339 994.69)"/><path class="v" d="M677.286,423.048l4.447,63.306-2.373,19.909-87.114-.4a3.739,3.739,0,0,1-3.96-3.469h0a3.506,3.506,0,0,1,2.56-3.209l38.861-15.482-8.773-65.874" transform="translate(917.725 509.907)"/><path class="w" d="M587.012,468.85c.919-2.5,2.611-5.31,4.313-5.944l41.216-15.375c22.71,7.985,52.109,1.879,52.109,1.879l2.253,26.878a1.753,1.753,0,0,1-1.869,1.6l-97.324-.444C585.683,477.436,586.981,468.928,587.012,468.85Z" transform="translate(915.056 546.081)"/><path class="x" d="M601.042,448.225a41.282,41.282,0,0,1,5.809,8.451" transform="translate(937.625 546.926)"/><path class="x" d="M599.016,449.436a36.163,36.163,0,0,1,4.774,7.186" transform="translate(934.465 548.401)"/><path class="x" d="M597.3,450.32a51.67,51.67,0,0,1,4.477,6.594" transform="translate(931.788 549.478)"/><line class="x" x1="99.776" y1="0.457" transform="translate(1501.642 1017.713)"/><path class="x" d="M640.544,452.8s-23.1.142-25.18,12.742" transform="translate(959.968 552.498)"/><path class="x" d="M591.729,453.042a66.144,66.144,0,0,1,7.969,11.977" transform="translate(923.097 552.793)"/><path class="y" d="M601.693,310.5s-12.521,89.092-7.731,153.791,11.7,139.769,11.7,139.769h75.72s-9.812-111.09-8.732-163.1c1.2-57.617,21.525-130.46,21.525-130.46" transform="translate(924.876 379.179)"/><path class="z" d="M626.817,604.059s-9.812-111.09-8.732-163.1c1.2-57.617,21.524-130.46,21.524-130.46" transform="translate(964.082 379.178)"/><path class="v" d="M674.918,381.958l70.229,19.572,21.187,7.985-26.788,71.819a4.136,4.136,0,0,1-5.015,2.218h0a3.57,3.57,0,0,1-2.752-3.094L726.5,443.682,653.58,423.155" transform="translate(1019.585 466.214)"/><path class="w" d="M691.768,477.093c-2.473-1.517-5.051-3.771-5.235-5.363l-4.452-38.677c15.644-16.342,17.83-42.463,17.83-42.463l30.249,6.268a1.812,1.812,0,0,1,1.085.8,1.418,1.418,0,0,1,.113,1.23l-29.927,80.236C700.818,480.786,691.858,477.142,691.768,477.093Z" transform="translate(1064.046 476.726)"/><path class="x" d="M681.689,414.5a55,55,0,0,1,11.054-2.242" transform="translate(1063.435 503.114)"/><path class="x" d="M682.231,416.537a48.294,48.294,0,0,1,9.349-1.774" transform="translate(1064.28 506.17)"/><path class="x" d="M682.556,418.4a68.329,68.329,0,0,1,8.607-1.7" transform="translate(1064.787 508.523)"/><line class="x" x1="30.682" y2="82.259" transform="translate(1758.746 872.751)"/><path class="x" d="M694.437,391.621s-6.835,19.124,6.4,24.651" transform="translate(1080.569 477.983)"/><path class="x" d="M683.464,425.225a88.71,88.71,0,0,1,15.583-2.959" transform="translate(1066.204 515.308)"/><path class="y" d="M695.715,311.8s6.8,25.323,6.8,36.191c0,7.985-3.669,13.412-5.617,19.263a28.681,28.681,0,0,0-1.441,7.65c-.584,11.647-1.367,44.346,7.058,59.886,10.355,19.092,96.474,44.44,96.474,44.44l-21.839,56.978s-131.84-28.7-148.27-63.656c-22.94-48.78-16.384-160.74-16.384-160.74" transform="translate(954.139 380.762)"/><path class="z" d="M644.779,488.853c-7.606-5.215-13.251-10.684-15.9-16.318-22.94-48.78-16.384-160.74-16.384-160.74" transform="translate(954.139 380.756)"/><path class="z" d="M640.107,310.84s7.739,31.877,7.739,42.745c0,8.131-3.8,13.856-5.722,19.578a28.686,28.686,0,0,0-1.408,7.1c-.824,11.5-2.271,44.854,7.13,60.119C660.881,461.543,751.1,489.4,751.1,489.4" transform="translate(998.567 379.593)"/><path class="z" d="M607.867,314.6s-1.154,22.994,2.56,25.753a57.782,57.782,0,0,0,7.334,4.6" transform="translate(948.008 384.179)"/><line class="z" x1="24.031" y2="57.277" transform="translate(1718.231 856.602)"/><line class="z" x2="75.789" transform="translate(1529.515 971.955)"/><path class="z" d="M631.995,312.589s4.723,14.676,25.754,19" transform="translate(985.912 381.723)"/><path class="z" d="M595.366,329.026s19-4.813,24.832-16.437" transform="translate(928.771 381.723)"/><path class="aa" d="M615.334,232.479l-3.4,20.647s-.3,5.72,12.544,9.7c8.848,2.881,18.832.666,24.993-5.545L648.451,236.4" transform="translate(954.621 284.15)"/><path class="aa" d="M618.065,223.589s-16.509,23.912-5.043,33.472c10.4,8.668,33.265,3.236,35.348.208s15.1-29.752,7.974-33.43C643.682,217.305,625.135,213.306,618.065,223.589Z" transform="translate(949.992 265.675)"/><path class="ab" d="M612.585,237.685a38.92,38.92,0,0,0,21.527-.8" transform="translate(955.633 289.513)"/><path class="ac" d="M612.053,216.977c2.168-14.124,21.929-3.549,29.967,2.895,2.414,1.936,16.515,5.525,18.808,7.568a14.3,14.3,0,0,1,4.749,7.355,15.435,15.435,0,0,1-.612,7.419,82.4,82.4,0,0,1-5.2,12.682c-2.155,4.527-6.008,13.53-13.46,12.589a6.7,6.7,0,0,1-3.963-1.384,4.144,4.144,0,0,1-.819-3.564,15.347,15.347,0,0,1,2.048-5.8c-1.536.361-3.131,1.167-4.608.665a2.167,2.167,0,0,1-1-.969c-.98-1.38.2-10.509,5.12-14.106-7.089-2.908-12.636-3.174-19.866-5.809a22.409,22.409,0,0,1-10.4-7.118C609.831,225.938,611.4,221.253,612.053,216.977Z" transform="translate(953.243 256.747)"/><path class="aa" d="M625.31,232.519c1.8-2.2,4.6-4.715,7.25-2.424a4.968,4.968,0,0,1,1.306,3.478c.32,4.305-4.7,9.808-9.093,8.3-2.14-.736-2.742-3.269-3.128-5.323" transform="translate(969.765 280.142)"/><path class="ad" d="M618.3,224.9s-7.145,6.075-7.15,8.149,5.361,3.347,5.361,3.347" transform="translate(953.4 274.919)"/><path class="m" d="M610.711,230.412l12.8,4.143a7.153,7.153,0,0,1-4.4,3.862,8.665,8.665,0,0,1-6.254-.313C607.383,235.961,610.711,230.412,610.711,230.412Z" transform="translate(951.145 281.632)"/><path class="ae" d="M612.71,223.544l-.96,1.553" transform="translate(954.33 273.267)"/><path class="af" d="M617.274,223.528a3.79,3.79,0,0,0-2.3-1.827,4.5,4.5,0,0,0-3.112.19" transform="translate(954.505 270.79)"/><path class="ae" d="M618.889,226.544q-.428.805-.858,1.608" transform="translate(964.128 276.921)"/><path class="af" d="M618.273,224.076s3.894-.377,6.7,4.052" transform="translate(964.506 273.906)"/><path class="v" d="M613.193,223.708c-1.055-12,.814-45.952-1.615-46.846s-3.428,10.609-5.263,9.551-1.685-18.853-4.385-19.177c-3.664-.444-2.693,17.775-2.693,17.775s-2.212-19.915-5.517-19.518c-2.342.288-1.462,15.555-1.971,21.426-.381-6.432-2.56-18.378-4.982-18.034s-1.933,12.354-2.158,20.339c-.4-4.995-1.554-15.907-3.812-15.681s-2.931,28.592-2.977,52.5" transform="translate(901.398 202.554)"/><path class="v" d="M609.738,317.682a330.122,330.122,0,0,1-24.161-58.408c-9.3-31.447-7.667-72.324-7.667-72.324l34.918,5.09c3.188,40.211,17.36,79.19,41.346,113.725" transform="translate(901.366 228.695)"/><path class="ag" d="M580.659,176.8c2.87,3.784,6.687,8.242,6.5,15.657" transform="translate(905.828 216.334)"/><path class="ag" d="M592.306,176.152c-3.359,2.593-7,9.584-5.24,13.173" transform="translate(915.109 215.544)"/><path class="ah" d="M745.342,269.421A85.014,85.014,0,0,0,767.02,232.6l-20.69-6.066a60.512,60.512,0,0,0,1.682-18.6l21.561-3.183a81.317,81.317,0,0,0-14.725-39.32l-19.6,8.393a73.336,73.336,0,0,0-13.97-14.2l12.636-15.435a108.819,108.819,0,0,0-42.5-18.78l-7,17.924a92.285,92.285,0,0,0-21.473-1.457L659.267,123.2a114.365,114.365,0,0,0-45.381,12.758l9.687,16.985a78.517,78.517,0,0,0-16.384,12.1L589.371,154.1A85.085,85.085,0,0,0,567.7,190.917l20.687,6.068a60.578,60.578,0,0,0-1.679,18.6l-21.558,3.181a81.315,81.315,0,0,0,14.725,39.318l19.6-8.393a73.326,73.326,0,0,0,13.967,14.2l-12.633,15.435a108.819,108.819,0,0,0,42.5,18.782l7-17.924a92.434,92.434,0,0,0,21.473,1.455l3.669,18.678a114.377,114.377,0,0,0,45.384-12.758l-9.689-16.985a78.382,78.382,0,0,0,16.384-12.1Zm-95.867-27.3c-19.355-8.553-27.043-29.08-17.171-45.849s33.564-23.429,52.919-14.876,27.042,29.08,17.17,45.849-33.564,23.428-52.918,14.876Z" transform="translate(881.628 151.05)"/><path class="w" d="M653.761,256.278c-10.391,0-26.6-28.787-26.6-28.787l-41.728,26.878s13.34,35.945,35.955,58.739" transform="translate(913.279 278.075)"/><line class="x" x1="42.522" y2="27.667" transform="translate(1501.404 511.313)"/><path class="v" d="M679.905,214.387c-2.23-13.2-8.028-44.291-10.6-44.8s-3.622,6.9-2.583,9.919c-1.628-5.651-6.144-18.015-8.863-17.93-3.694.113.945,17.908.945,17.908s-6.2-19.272-9.377-18.372c-2.248.641,1.7,15.537,2.391,21.395-1.674-6.266-6.231-17.706-8.55-17s.594,12.456,1.987,20.352c-1.4-4.857-4.746-15.424-6.912-14.861s3.487,24.957,6.851,49.286" transform="translate(995.062 197.185)"/><path class="v" d="M679.585,314.393a316.715,316.715,0,0,0,12.106-61.154c2.867-32.367-6.912-72.382-6.912-72.382l-33.37,10.258a223.222,223.222,0,0,1-17.964,118.219" transform="translate(988.176 221.275)"/><path class="w" d="M641.492,240.47s2.025,5.064,13.535,5.574A37.885,37.885,0,0,0,678.1,240.47s44.191,5.081,47.76,46.91c4.114,48.175,5.248,115.843,5.248,115.843H593.3s.924-77.279,3.827-114.149C599.9,253.742,641.492,240.47,641.492,240.47Z" transform="translate(925.548 293.883)"/><path class="w" d="M674.086,310.435a362.69,362.69,0,0,0,22.528-66.005l-44.25-18.554s-10.532,25.44-25.938,32.369" transform="translate(977.225 276.108)"/><line class="x" x2="45.921" y2="19.037" transform="translate(1626.02 509.332)"/><line class="x" x2="137.682" transform="translate(1518.838 690.499)"/><path class="x" d="M649.3,262.763s-5.6,10.4-6.206,15.626" transform="translate(1003.22 321.036)"/><path class="x" d="M605.008,250.364a69.069,69.069,0,0,0-10.217,26.66" transform="translate(927.874 305.934)"/><path class="x" d="M610.077,239.609c1.737,8.412,10.433,14.386,20.283,13.933,22.016,0,26.368-13.933,26.368-13.933" transform="translate(951.72 292.834)"/><path class="ai" d="M649.158,169.433c-.374-.954,2.048,6.188,3.226,8.832" transform="translate(1012.625 207.254)"/><path class="v" d="M579.429,421.6l2.4,65.695-2.465,20.663-90.4-.415a4.468,4.468,0,0,1-2.917-1.061,3.348,3.348,0,0,1-1.194-2.539h0a3.642,3.642,0,0,1,2.667-3.327l40.328-16.065-6.1-68.349" transform="translate(756.378 507.92)"/><path class="aj" d="M483.536,469.138c.955-2.6,2.708-5.51,4.477-6.168l42.752-15.956c23.567,8.278,54.075,1.952,54.075,1.952l2.337,27.891a1.819,1.819,0,0,1-1.941,1.664l-100.994-.461C482.156,478.048,483.5,469.22,483.536,469.138Z" transform="translate(753.602 545.451)"/><path class="z" d="M498.093,447.734a42.911,42.911,0,0,1,6.029,8.77" transform="translate(777.025 546.328)"/><path class="z" d="M495.991,448.992a37.515,37.515,0,0,1,4.954,7.457" transform="translate(773.746 547.86)"/><path class="z" d="M494.213,449.909a53.6,53.6,0,0,1,4.647,6.842" transform="translate(770.972 548.977)"/><line class="z" x1="103.542" y1="0.472" transform="translate(1236.698 1017.477)"/><path class="z" d="M539.09,452.487s-23.977.144-26.132,13.221" transform="translate(800.214 552.117)"/><path class="z" d="M488.429,452.734s6.912,8.5,8.269,12.421" transform="translate(761.949 552.418)"/><path class="ak" d="M556.17,303.733s11.008,16.049,14.177,28.02a85.589,85.589,0,0,1,0,38.506l-.22,229.651H503.009s-14.891-264.659-8.274-298.876" transform="translate(769.142 367.649)"/><path class="z" d="M507.009,599.91s-14.892-264.659-8.274-298.876" transform="translate(775.382 367.649)"/><path class="v" d="M526.872,406.971l30.492,60.185,6.6,19.962-84.055,28.82a4.723,4.723,0,0,1-3.17-.038,3.874,3.874,0,0,1-2.206-1.974h0a3.258,3.258,0,0,1,1.042-3.952l30.51-27.931-35.052-61.478" transform="translate(734.811 496.679)"/><path class="y" d="M471.415,485.173c-.228-2.717.146-5.989,1.5-7.171l32.814-28.612c25.431.071,51.018-15.652,51.018-15.652l14.167,25.128a1.608,1.608,0,0,1-1.083,2.169L475.918,493.22C473.97,493.885,471.423,485.257,471.415,485.173Z" transform="translate(735.31 529.281)"/><path class="z" d="M481.7,442.81a50.43,50.43,0,0,1,9.364,6.19" transform="translate(751.452 540.331)"/><path class="z" d="M480.213,444.76a43.987,43.987,0,0,1,7.805,5.323" transform="translate(749.132 542.706)"/><path class="z" d="M478.9,446.274a63.049,63.049,0,0,1,7.258,4.851" transform="translate(747.084 544.55)"/><line class="z" x1="96.284" y2="32.997" transform="translate(1207.56 984.279)"/><path class="z" d="M518.286,437.875s-22.185,7.876-18.56,20.707" transform="translate(778.948 534.32)"/><path class="z" d="M474.591,451.051s10.069,5.66,13.02,8.861" transform="translate(740.362 550.368)"/><path class="y" d="M497.582,336.071C463.1,409.5,462.479,417.276,456.8,453.11c-5.827,36.768,57.943,145.028,57.943,145.028l61.184-23.406s-40.584-99.058-37.957-116.092c4.831-31.334,46.577-84.8,46.577-84.8s19.819-13.594,24.128-31.653-5.171-36.972-5.171-36.972" transform="translate(712.018 372.738)"/><path class="z" d="M497.076,327.149c.9-.26,27.471-7.5,27.471-7.5" transform="translate(775.439 390.318)"/><line class="z" y1="2.409" x2="8.74" transform="translate(1331.105 700.831)"/><path class="z" d="M510.268,318.125S467.634,398.4,461.8,435.164,518,577.182,518,577.182" transform="translate(719.812 388.466)"/><path class="z" d="M493.824,403.046a371.608,371.608,0,0,1,32.384-49.512s19.82-13.594,24.128-31.653" transform="translate(770.365 393.041)"/><path class="v" d="M487.714,237.2l17.544,26.454s-10.516,19.709-38.94,10.356l-7.283-13.973Z" transform="translate(716.093 289.9)"/><path class="v" d="M453.533,231.341s-8.635,35.184,6.4,41.459c7.818,3.26,29.678,1.244,34.839-5.989,3.84-5.359,2.327-30.73-2.363-33.809C474.494,221.251,453.533,231.341,453.533,231.341Z" transform="translate(703.661 277.856)"/><path class="al" d="M498,227.985c-6.569-9.948-19.955-7.965-41.7,2.764-2.911,1.435-9.254,1.95-9.329,4.853-.095,3.813,3.072,10.1,8.172,11.358a16.5,16.5,0,0,0,8.643-.124c4.529-.912,10.573.665,10.5,5.279-.015,1.207-.425,3.418.876,3.85a15.974,15.974,0,0,0,3.072.066c2.048.058,3.144,2.218,2.893,3.979s1.024,3.03.768,4.782c-.617,4.152,5.5,8.7,10.319,9.025,4.26.284,16.684-1.51,22.577-8.446,5.12-6.017,4.462-16.171-4.068-31.287C507.446,228.286,500.271,226.525,498,227.985Z" transform="translate(697.264 270.792)"/><path class="v" d="M457.483,240.749c1.388-5.634,4.744-6.264,7.642-4.735,3.866,2.043,3.013,10.081,1.582,12-2.906,3.895-6.367,5.1-8.333,2.331" transform="translate(713.674 287.583)"/><path class="am" d="M459.573,253.628c4.483-3.225,3.807-9.373,3.807-9.373" transform="translate(716.934 298.493)"/><path class="an" d="M452.849,237.09c-.622,1.213-.824,3.019.335,3.786a1.029,1.029,0,0,0,1.073.031C456.512,239.694,454.152,234.555,452.849,237.09Z" transform="translate(705.662 288.921)"/><path class="ao" d="M451.823,235a11.033,11.033,0,0,1,6.595,1.207" transform="translate(704.844 287.118)"/><path class="m" d="M458.75,242.652l-6.561-.189s-.256,6.984,2.816,7.118C458.41,249.729,458.75,242.652,458.75,242.652Z" transform="translate(705.407 296.31)"/><path class="ah" d="M475.506,246.941s15.288-3.4,36.918,2.065c18.24,4.609,41.472,16.451,58.959,32.556,30.267,27.887,16.31,97.183,16.31,97.183l-39.352-1.289s6.175-44.531-14.433-62.388-49.7-22.045-49.7-22.045" transform="translate(741.789 300.493)"/><path class="v" d="M446.565,290.259c-12.329,2.968-49.682,6.483-50.286,8.695s12.544,1.122,11.671,2.857-20.992,4.593-20.92,6.94c.107,3.181,20.529-.705,20.529-.705s-8.486,1.315-7.473,4.05c.719,1.938,4.178,2.533,10.893,1.976-3.681.721-5.12,2.258-4.331,4.256s4.352,1.85,8.133,1.411c-2.6.51-4.608,2-2.926,3.314,2.194,1.71,17.444.978,44.449-3" transform="translate(603.765 354.525)"/><path class="ah" d="M467.744,255.231a36.35,36.35,0,0,0,22.18,0,46.969,46.969,0,0,0,16.686-8.854s26.452-1.573,58.647,26.321c32.512,28.169,57.792,108.074,57.792,108.074L489.77,419.586s-22.784-69.96-31.764-101.806S467.744,255.231,467.744,255.231Z" transform="translate(710.685 301.058)"/><path class="ap" d="M497.735,254.93c26.637,26.953,59.533,115.4,59.533,115.4" transform="translate(776.467 311.495)"/><path class="ah" d="M547.285,250.36c-17.557,5.825-32.627,20.587-41.887,35.792C490.232,311.062,481,329.13,481,329.13l-76.421,9.923,3.791,35.317s51.878-1.331,93.227-6.718c29.379-3.828,52.124-56.59,52.124-56.59" transform="translate(631.145 305.929)"/><path class="ap" d="M458.314,257.593s8.448,9.777,28.726,3.192,20.992-14.721,20.992-14.721" transform="translate(714.97 300.696)"/><line class="ap" y1="15.207" x2="8.305" transform="translate(1175.127 619.936)"/><line class="ap" x2="2.872" y2="36.368" transform="translate(1047.68 643.429)"/><line class="ap" y1="38.118" x2="133.097" transform="translate(1198.008 674.976)"/><path class="v" d="M263.208,277.476c.6.344,1.208.665,1.815,1.009a81.6,81.6,0,0,0,18.829,8.322c3.932,1,8.207,1.526,11.412,3.74a31.718,31.718,0,0,0,3.84,2.566c.381.191,4.16,1.413,4,1.069A5.555,5.555,0,0,0,306.5,296.4a1.044,1.044,0,0,0,.5.084.323.323,0,0,0,.205-.113.244.244,0,0,0,.051-.206,2.406,2.406,0,0,0,2.752.743c.543-.446-.817-2.531-.817-2.531s.922.055,1.193-.222a2.423,2.423,0,0,0,.579-1.61,17.634,17.634,0,0,0-6.474-14.6" transform="translate(410.604 338.956)"/><path class="aq" d="M279.911,282.457a36.06,36.06,0,0,1,2.627,5.135" transform="translate(436.661 345.023)"/><path class="aq" d="M277.407,282.457a28.2,28.2,0,0,1,6.638,6.594" transform="translate(432.755 345.023)"/><line class="ar" x1="45.484" y1="402.237" transform="translate(623.206 621.735)"/><path class="ar" d="M466.017,682.1,420.533,279.867H243.44" transform="translate(379.766 341.868)"/><line class="ar" y1="402.237" x2="45.484" transform="translate(754.813 621.735)"/><path class="ar" d="M225.673,682.1l45.484-402.237H448.247" transform="translate(352.05 341.868)"/><line class="ar" x1="254.336" transform="translate(584.166 966.987)"/><line class="ar" x1="242.852" transform="translate(589.737 917.732)"/><line class="ar" x1="232.586" transform="translate(595.459 867.124)"/><line class="ar" x1="221.46" transform="translate(600.914 818.888)"/><line class="ar" x1="210.524" transform="translate(606.369 768.499)"/><line class="ar" x1="199.181" transform="translate(612.068 718.564)"/><line class="ar" x1="187.036" transform="translate(617.59 671.405)"/><path class="v" d="M259.349,288.394q27.254.078,54.507-.106a24.116,24.116,0,0,0-4.736-6,25.477,25.477,0,0,0-6.769-4.4,69.374,69.374,0,0,0-27.415-5.853" transform="translate(404.584 332.325)"/><path class="as" d="M264.45,230.48s24.852,56.126,31.063,60.831,65.411,30.207,65.411,30.207l-18.145,33.27s-71.222-24.649-81.428-33.27-42.668-42.02-45.934-75.549" transform="translate(336.049 281.715)"/><path class="v" d="M217.594,398.493l-2.56,60.407,2.158,19.01,83.139-.027a3.572,3.572,0,0,0,3.8-3.294h0a3.34,3.34,0,0,0-2.437-3.074l-37-14.934,5.957-62.838" transform="translate(335.453 480.569)"/><path class="w" d="M309.422,442.606a10.065,10.065,0,0,0-4.1-5.691l-39.24-14.838c-21.719,7.519-49.741,1.581-49.741,1.581l-2.3,25.642a1.669,1.669,0,0,0,1.777,1.535l92.882-.029C310.654,450.806,309.461,442.681,309.422,442.606Z" transform="translate(333.905 515.077)"/><path class="x" d="M241.105,422.754a39.493,39.493,0,0,0-5.588,8.042" transform="translate(367.407 515.903)"/><path class="x" d="M242.438,423.92a34.536,34.536,0,0,0-4.608,6.838" transform="translate(371.015 517.323)"/><path class="x" d="M243.885,424.772a49.223,49.223,0,0,0-4.308,6.275" transform="translate(373.74 518.361)"/><line class="x" y1="0.031" x2="95.224" transform="translate(548.506 960.34)"/><path class="x" d="M214.623,427.011s22.047.222,23.962,12.263" transform="translate(334.812 521.088)"/><path class="x" d="M251.247,427.395a63.177,63.177,0,0,0-7.68,11.4" transform="translate(379.965 521.556)"/><path class="ah" d="M210,301.934s-8.015,30.786,9.216,68.092a482.911,482.911,0,0,1,9.019,83.567c.689,45.469-6.3,103.409-6.3,125.048h68.4s8.387-61.618,9.132-123.722c.835-69.563-5.962-148.082-5.962-168.345" transform="translate(324.689 350.038)"/><path class="ap" d="M236.241,578.646s8.4-62.754,9.155-125.638c.827-69.081-5.985-146.352-5.985-166.436" transform="translate(368.536 350.035)"/><path class="v" d="M262.76,376.328l-2.56,60.407,2.158,19.01,83.139-.027a3.575,3.575,0,0,0,3.8-3.294h0a3.347,3.347,0,0,0-2.437-3.074l-37-14.934,5.957-62.838" transform="translate(405.912 453.572)"/><path class="w" d="M354.593,420.442a10.067,10.067,0,0,0-4.1-5.691l-39.232-14.84c-21.716,7.521-49.741,1.584-49.741,1.584l-2.3,25.642a1.439,1.439,0,0,0,.52,1.086,1.919,1.919,0,0,0,1.254.449l92.882-.029C355.814,428.642,354.621,420.515,354.593,420.442Z" transform="translate(404.383 488.079)"/><path class="x" d="M286.279,400.589a39.568,39.568,0,0,0-5.591,8.042" transform="translate(437.873 488.906)"/><path class="x" d="M287.6,401.755a34.505,34.505,0,0,0-4.6,6.838" transform="translate(441.488 490.326)"/><path class="x" d="M289.058,402.607a49.259,49.259,0,0,0-4.311,6.275" transform="translate(444.205 491.364)"/><line class="x" y1="0.031" x2="95.224" transform="translate(664.141 911.178)"/><path class="x" d="M259.793,404.846s22.049.222,23.962,12.263" transform="translate(405.277 494.091)"/><path class="x" d="M296.417,405.23a63.257,63.257,0,0,0-7.68,11.4" transform="translate(450.43 494.559)"/><path class="ah" d="M308.064,301.787s65.723,53.973,80.53,89.121c10.324,24.507-4.68,136.342-4.68,136.342H318.455s7.977-101.806,3.84-112.308c-4.864-12.356-61.215-54.485-61.215-54.485-15.8-3.943-28.758-13.767-35.366-26.811-10.227-19.962-5.491-44.182-5.491-44.182" transform="translate(341.839 353.557)"/><path class="ap" d="M247.868,295.02S316,357.412,328.4,384.141c9.421,20.3-4.68,136.342-4.68,136.342" transform="translate(386.674 360.324)"/><path class="ap" d="M276.9,351.56c-5.164-4.061-14.106-11.03-16.827-13.1a18.78,18.78,0,0,0-5.947-3.032c-14.488-4.443-26.222-13.864-32.435-26.043" transform="translate(345.846 377.821)"/><path class="ap" d="M228.773,303.778s19.6.592,27.794,0" transform="translate(356.886 370.991)"/><line class="ap" x2="15.803" transform="translate(532.823 674.769)"/><path class="v" d="M299.748,240.58c6.869-2.715,38.144-14.563,38.884-12.92.709,1.584-9.178,7.295-8.082,7.566a67.622,67.622,0,0,0,13.878-3.72c3.947-1.677,10.6-3.811,11.666-2.415,2.025,2.648-19.761,11.611-19.761,11.611s3.853-1.535,5.809.53c2.816,2.979-3.151,5.734-3.151,5.734s3.423-1.508,4.554,1.058c1.175,2.662-3.95,4.829-3.95,4.829s4.065-1.69,4.58,1.526c.678,4.214-31.836,14.162-31.836,14.162" transform="translate(467.607 278.091)"/><path class="w" d="M285.242,222.663a25.337,25.337,0,0,1-16.973,2.954c-10.44-1.542-12.977-5.906-12.977-5.906s-27.768,3.349-41.119,77.545a419.9,419.9,0,0,0-6.262,94.531h126.6s3.866-113.357-2.56-134.426" transform="translate(323.62 268.599)"/><path class="w" d="M247.8,275.571s37.5,35.894,72.494,35.894,100.864-32.176,100.864-32.176l-15.734-37.417L328.88,265.655s-40.307-32.624-58.9-38.64a113.894,113.894,0,0,0-32.141-5.973" transform="translate(371.024 270.22)"/><path class="x" d="M278.761,270.649s-23.552-15.566-34.926-22.876" transform="translate(380.383 302.778)"/><line class="x" x2="14.41" y2="39.176" transform="translate(769.137 514.362)"/><line class="x" x2="127.263" transform="translate(531.146 651.257)"/><path class="x" d="M248.75,251.462c1.242,31.529,0,101.653,0,101.653" transform="translate(388.05 307.271)"/><path class="v" d="M228.068,212.421l-2.875,20.017s22.305,10.134,37.1-.637V220.137Z" transform="translate(351.301 259.72)"/><path class="v" d="M257.5,198.263s26.063,28.47,16.535,39.019c-4.954,5.485-21.115,4.17-28.82,0-5.714-3.105-21.675-19.611-19.233-23.832C235.312,197.316,257.5,198.263,257.5,198.263Z" transform="translate(352.141 242.462)"/><path class="ac" d="M273.2,206.465a123.335,123.335,0,0,1-1.28,21.854l-2,37.471s-34.4,3.176-56.4-10.059c0,0,7.375-39.374,23.772-51.3,15.6-11.347,35.9-10.527,46.208-3.189,0,0-1.434,3.438-3.356,4.23a30.781,30.781,0,0,1-6.956,1" transform="translate(333.094 239.475)"/><path class="v" d="M242.392,210.156c-3.185-3.5-5.76-2.941-7.168-1.02-1.874,2.56,1.887,7.881,3.638,8.788,3.548,1.841,6.423,1.648,6.7-.85" transform="translate(366.153 253.861)"/><path class="am" d="M242.82,218.928a5.4,5.4,0,0,1-4.956-2.728" transform="translate(371.068 264.322)"/><path class="an" d="M241.72,204.946c1.091.787,2.112,2.218,1.51,3.265a.88.88,0,0,1-.875.408C239.908,208.41,239.442,203.3,241.72,204.946Z" transform="translate(374.777 250.219)"/><path class="at" d="M243.691,203.015a5.633,5.633,0,0,0-4.908,3.342" transform="translate(372.502 248.263)"/><path class="m" d="M241.6,212.284l5.793-1.61s2.281,6.166-.425,6.962C243.963,218.508,241.6,212.284,241.6,212.284Z" transform="translate(376.896 257.592)"/><path class="ac" d="M236.313,202.386a4.825,4.825,0,0,0,3.84-4.642,6,6,0,0,0-3.72-4.926,10.81,10.81,0,0,0-6.925-.508,8,8,0,0,0-2.452.98c-2.967,1.9-2.89,6.015-.788,8.65a6.227,6.227,0,0,0,3.528,2.316,12.014,12.014,0,0,0,6.241-1.038" transform="translate(350.613 234.804)"/><path class="v" d="M241.9,204.62c.653.311,7.516,2.883,7.562,5.281.026,1.353-3.781,2.823-3.781,2.823" transform="translate(377.364 250.218)"/><path class="v" d="M288.623,277.29a34.062,34.062,0,0,1,7.117,10.662,1.021,1.021,0,0,1,.153.444c.026.705-1.2.77-1.961.519a16.662,16.662,0,0,1-4.774-2.462,7.636,7.636,0,0,0-5.64-1.983A18.481,18.481,0,0,1,269.8,277.3" transform="translate(420.894 338.729)"/><path class="am" d="M288.623,277.29a34.062,34.062,0,0,1,7.117,10.662,1.021,1.021,0,0,1,.153.444c.026.705-1.2.77-1.961.519a16.662,16.662,0,0,1-4.774-2.462,7.636,7.636,0,0,0-5.64-1.983A18.481,18.481,0,0,1,269.8,277.3" transform="translate(420.894 338.729)"/><path class="v" d="M108.229,423.048l-2.3,63.306,2.376,19.909,87.112-.4a3.739,3.739,0,0,0,3.96-3.469h0a3.5,3.5,0,0,0-2.56-3.209l-38.861-15.481,5.87-65.874" transform="translate(165.243 509.907)"/><path class="aj" d="M204.835,468.85c-.919-2.5-2.611-5.31-4.314-5.944l-41.216-15.375c-22.71,7.985-52.109,1.879-52.109,1.879l-2.253,26.878a1.753,1.753,0,0,0,1.869,1.6l97.323-.444C206.164,477.436,204.866,468.928,204.835,468.85Z" transform="translate(163.713 546.081)"/><path class="au" d="M133.207,448.225a41.278,41.278,0,0,0-5.809,8.451" transform="translate(198.741 546.926)"/><path class="au" d="M134.6,449.436a36.167,36.167,0,0,0-4.774,7.186" transform="translate(202.532 548.401)"/><path class="au" d="M136.134,450.32a51.95,51.95,0,0,0-4.477,6.594" transform="translate(205.385 549.478)"/><line class="au" y1="0.457" x2="99.776" transform="translate(269.197 1017.713)"/><path class="au" d="M105.507,452.8s23.1.142,25.18,12.742" transform="translate(164.591 552.498)"/><path class="au" d="M143.836,453.042a66.131,66.131,0,0,0-7.969,11.977" transform="translate(211.953 552.793)"/><path class="ah" d="M168.727,326.953s46.3,75.17,60.987,122.444-4.849,153.749-4.849,153.749H152.827s14.367-115.557-2.642-153.749-77.87-138.671-77.87-138.671" transform="translate(112.811 379.454)"/><path class="ap" d="M139.53,579.155s11.807-120.215,4.623-149.914-56.991-98.818-56.991-98.818" transform="translate(135.974 403.445)"/><path class="v" d="M107.6,404.308l-42.58,50.845-11.6,17.3,70.715,44.074a4.4,4.4,0,0,0,5.56-.785h0a3.08,3.08,0,0,0,.1-3.906l-20.915-32.325,47.194-53.325" transform="translate(83.341 493.436)"/><path class="aj" d="M136.277,492.374c.955-2.491,1.492-5.625.548-7.007l-22.884-33.434C90.161,446.81,70.526,426.9,70.526,426.9l-20.07,20.587a1.48,1.48,0,0,0,.422,2.249l79.007,49.24C131.521,500,136.249,492.454,136.277,492.374Z" transform="translate(78.166 520.949)"/><path class="au" d="M83.81,440.8a52.921,52.921,0,0,0-10.435,3.873" transform="translate(114.465 537.883)"/><path class="au" d="M83.705,442.968a46.3,46.3,0,0,0-8.742,3.376" transform="translate(116.942 540.523)"/><path class="au" d="M84.176,444.69a66.148,66.148,0,0,0-8.1,3.052" transform="translate(118.683 542.621)"/><line class="au" x2="80.996" y2="50.481" transform="translate(131.901 965.308)"/><path class="au" d="M55.22,430.287s18.588,11.888,11.712,23.138" transform="translate(86.143 525.078)"/><path class="au" d="M91.03,450.17s-10.949,3.234-14.574,5.622" transform="translate(119.271 549.295)"/><path class="ah" d="M72.964,310.728c-13.716,33.682,0,60.192,0,60.192s46.764,74.054,46.764,89.1c0,13.8-60,92.452-60,92.452l54.863,38.2s86.18-80.351,84.544-135.963c-2.02-68.758-45.2-143.992-45.2-143.992" transform="translate(93.18 379.452)"/><path class="ap" d="M78.389,311.726c-13.716,33.682,2.844,56.383,2.844,56.383s43.919,77.862,43.919,92.909c0,13.8-62.336,95.735-62.336,95.735" transform="translate(97.995 380.672)"/><path class="ap" d="M119.909,515.681c12.844-20.437,22.374-42.122,21.819-60.964-2.02-68.758-45.2-143.992-45.2-143.992" transform="translate(150.581 379.454)"/><path class="ap" d="M67.14,332.316s24.481,1.247,34.081-15.805" transform="translate(104.738 386.5)"/><path class="ap" d="M103.789,339.339s6.707.643,6.065-2.233-6.065-18.372-6.065-18.372" transform="translate(161.911 389.208)"/><path class="av" d="M145.74,241.987c2.514,13.581.53,25.582-12.854,27.383s-31.967-1.5-35.612-20.849c-2.56-13.576,6.3-26.055,19.684-27.856S143.229,228.4,145.74,241.987Z" transform="translate(151.061 269.496)"/><path class="an" d="M111.769,230.662c-.279,1.244-.02,2.963,1.252,3.46a.966.966,0,0,0,1.006-.169C115.826,232.4,112.35,228.058,111.769,230.662Z" transform="translate(174.201 280.946)"/><path class="aw" d="M109.961,229.475a12.487,12.487,0,0,1,9.236-.548" transform="translate(171.539 279.052)"/><path class="m" d="M120.427,236.56l-8.722.024s-.525,6.286,3.812,6.931C119.147,244.055,120.427,236.56,120.427,236.56Z" transform="translate(174.229 289.121)"/><path class="av" d="M129.523,269.279a61.176,61.176,0,0,1-20.224-.765c-11.558-2.735-14.848-6.8-14.848-6.8l16.028-28.978,24.727,9.715Z" transform="translate(147.344 284.459)"/><path class="ab" d="M119.33,245.014s-10.788.3-16.369-4.281" transform="translate(160.619 294.203)"/><path class="av" d="M114.834,229.972s6.687,8.508,6.349,10.028-5.189,2.182-5.189,2.182" transform="translate(179.141 281.097)"/><path class="ax" d="M114.933,267.271a18.81,18.81,0,0,1-4.608.9,18.243,18.243,0,0,1-9.216-1.384c-5.3-2.393-8.237-7.457-7.291-12.569.189-.807.489-1.595.64-2.409.7-3.793-1.869-7.417-2.591-11.205a13.466,13.466,0,0,1,2.816-10.646A20.941,20.941,0,0,1,104.7,223.2c3.205-1.065,6.72-1.444,9.38-3.442a31.454,31.454,0,0,1,3.75-2.737c6.656-3.631,16.148-1.641,22.1,2.187a7.379,7.379,0,0,0,2.258,1.151c1.462.339,2.988-.189,4.472.069,5.706,1,8.212,8.3,8.154,12.669a5.627,5.627,0,0,1-1.28,3.649,8.566,8.566,0,0,1-5.589,2.413,58.9,58.9,0,0,0-8.96.559c-2.048.541-3.794,1.681-5.773,2.367a13.837,13.837,0,0,1-9.59-.268,11.612,11.612,0,0,1,.709,5.561c-.607,3.491-4.012,5.206-7.636,6.073a18.552,18.552,0,0,1,.9,11.534,4.131,4.131,0,0,1-2.655,2.284Z" transform="translate(143.022 262.996)"/><path class="aa" d="M108.013,232.017a5.086,5.086,0,0,0-3.315-1.612,5.393,5.393,0,0,0-3.641.946c-4.864,3.511,1.469,11.063,5.317,12.3a3.763,3.763,0,0,0,4.966-2.455" transform="translate(154.899 281.593)"/><path class="ah" d="M260.119,370.187a76.286,76.286,0,0,0,23.828-27.958l-16.195-7.5A52.208,52.208,0,0,0,272.1,319.5l18.386-.067a66.014,66.014,0,0,0-5.967-34.379l-17.595,4.622a57.55,57.55,0,0,0-9.329-13.448l12.933-11.3a86.369,86.369,0,0,0-32.256-20.645l-8.658,14.031a76.171,76.171,0,0,0-17.58-3.771l-.074-15.93a98.832,98.832,0,0,0-39.68,5.17l5.338,15.244a70.206,70.206,0,0,0-15.521,8.082l-13.041-11.205a76.339,76.339,0,0,0-23.828,27.947l16.195,7.5a52.21,52.21,0,0,0-4.352,15.231l-18.386.064a66.021,66.021,0,0,0,5.967,34.379l17.595-4.625a57.455,57.455,0,0,0,9.329,13.448l-12.931,11.3A86.327,86.327,0,0,0,170.906,381.8l8.655-14.031a76.167,76.167,0,0,0,17.58,3.771l.077,15.93a98.835,98.835,0,0,0,39.68-5.17l-5.338-15.244a70.266,70.266,0,0,0,15.521-8.082ZM185.277,335.71c-14.447-9.241-17.511-26.879-6.844-39.395s31.025-15.169,45.47-5.925,17.5,26.882,6.835,39.4S199.72,344.948,185.277,335.71Z" transform="translate(184.673 291.301)"/><path class="v" d="M156.951,296.242c7.524.557,41.487,3.549,41.2,5.29-.282,1.681-11.776,2.24-11.331,3.15.622,1.3,9.28,2.422,14.2,2.662,4.388.222,11.395,1.191,11.52,2.857.256,3.169-23.808,1.708-23.808,1.708.079.958,26.209-2.619,26.744.013.768,3.8-27.085,5.663-27.978,6.574,0,0,23.636-7.43,24.207-4.622s-20.344,9.9-27.021,10.008c5.458-.983,21.53-8.823,21.947-6.776s-13.8,7.4-16.11,7.73a196.334,196.334,0,0,1-38.472,1.109" transform="translate(237.192 361.813)"/><path class="y" d="M182.547,254.345s-7.3,3-18.345-1.16c-12-4.516-14.531-9.715-14.531-9.715s-65.121,5-88.945,161.536l133.348,14.326s10.734-55.953,9.019-101.238c-1.093-28.834-14.021-51.267-20.547-63.761" transform="translate(94.734 297.537)"/><path class="y" d="M93.031,311.048s20.506,59.529,75.9,72.406a427.46,427.46,0,0,0,87.836,11.42l5.376-40.146s-60.319-9.375-85.138-23.6c-18.9-10.83-22.584-45.526-27.366-57.8-6.656-17.043-17.48-24.963-17.48-24.963" transform="translate(145.128 303.503)"/><path class="z" d="M93.394,244.018s4.1,10.921,23.094,14.5c13.883,2.611,19.318-.974,19.318-.974" transform="translate(145.695 298.204)"/><path class="z" d="M146.614,348.776s-50.5-20.215-53.22-77.477" transform="translate(145.695 331.434)"/><line class="z" x1="6.797" y2="41.618" transform="translate(389.261 656.3)"/></g></g></svg>