<svg id="_x33_0" enable-background="new 0 0 64 64" height="512" viewBox="0 0 64 64" width="512" xmlns="http://www.w3.org/2000/svg"><g><g><path d="m40.39 32.978.001.023c-2.596 5.328-8.065 8.999-14.391 8.999-8.837 0-16-7.163-16-16s7.163-16 16-16c5.922 0 11.093 3.218 13.859 8h.484c1.994 0 3.937-.451 5.714-1.27.71-3.024-.153-6.181-2.38-8.407-2.523-2.523-6.223-3.297-9.496-2.075-1.449-3.18-4.612-5.248-8.181-5.248s-6.732 2.068-8.182 5.247c-3.272-1.223-6.971-.449-9.496 2.075-2.523 2.523-3.297 6.223-2.075 9.496-3.179 1.45-5.247 4.613-5.247 8.182s2.068 6.732 5.247 8.182c-1.222 3.273-.448 6.973 2.075 9.496 2.524 2.524 6.224 3.299 9.496 2.075 1.45 3.179 4.613 5.247 8.182 5.247s6.732-2.068 8.182-5.247c3.274 1.223 6.973.448 9.496-2.075 1.378-1.378 2.262-3.169 2.539-5.162-2.408-1.322-4.402-3.244-5.827-5.538z" fill="#f0bc5e"/></g><g><path d="m35.176 46.045 3.392 10.74-4.815-.688-1.805-5.414-1.897.633 1.805 5.414-3.389 3.388-2.814-9.143c-.756-.029-1.494-.135-2.197-.34l1.497 4.865-1.421 4.618-3.389-3.388 1.805-5.414-1.897-.633-1.805 5.414-4.815.688 3.392-10.74c-.72.178-1.449.257-2.178.255l-4.078 12.915 8.079-1.154 5.821 5.821 1.533-4.982 1.533 4.982 5.821-5.821 8.079 1.154-4.079-12.916c-.729.003-1.458-.076-2.178-.254z"/><path d="m59.657 17c-3.381 0-6.559-1.316-8.95-3.707l-.707-.707-.707.707c-2.374 2.374-5.526 3.686-8.881 3.704-3.097-4.944-8.56-7.997-14.412-7.997-9.374 0-17 7.626-17 17s7.626 17 17 17c5.998 0 11.405-3.072 14.484-8.109 2.255 2.935 5.472 5.129 9.273 6.078l.243.061.243-.061c7.511-1.876 12.757-8.595 12.757-16.338v-7.631zm-42.657 20.972v-1.635c0-1.742 1.146-3.268 2.757-3.799l3.044 5.075 3.199-3.199 3.199 3.199 3.044-5.075c1.611.531 2.757 2.057 2.757 3.799v1.678c-2.539 1.906-5.665 2.985-9 2.985-3.379 0-6.49-1.136-9-3.028zm3.252-16.317c-.164-.504-.252-1.032-.252-1.572 0-2.803 2.28-5.083 5.083-5.083h1.835c2.802 0 5.082 2.28 5.082 5.083 0 .509-.078 1.008-.224 1.485-.381-.943-1.223-1.656-2.283-1.832l-1.953-.326c-1.099-.183-2-.954-2.353-2.01l-.238-.715-1.897.632.238.716c.097.291.219.568.363.83l-1.138.456c-1.081.43-1.882 1.29-2.263 2.336zm1.748 1.376c0-.823.494-1.552 1.257-1.857l1.785-.714c.627.467 1.366.789 2.168.922l1.953.326c.485.081.837.496.837.986v1.304c0 2.206-1.794 4.001-4 4.002-2.206-.001-4-1.796-4-4.002zm7.237 9.013.894.128-1.329 2.216-1.232-1.232zm-3.239-2.044h.004c.533 0 1.048-.077 1.541-.209l.267.801-1.81 1.206-1.81-1.207.267-.801c.493.133 1.008.21 1.541.21zm-3.235 2.044 1.667 1.112-1.232 1.232-1.329-2.216zm14.226 4.177c-.058-2.916-2.243-5.41-5.141-5.824l-2.095-.299-.38-1.14c1.205-.822 2.09-2.074 2.448-3.53l.899-1.283c.837-1.197 1.28-2.601 1.28-4.062 0-3.906-3.177-7.083-7.083-7.083h-1.835c-3.905 0-7.082 3.177-7.082 7.083 0 1.461.443 2.865 1.281 4.062l.898 1.283c.358 1.457 1.243 2.708 2.448 3.53l-.38 1.14-2.095.299c-2.884.412-5.059 2.885-5.137 5.783-2.483-2.678-4.015-6.249-4.015-10.18 0-8.271 6.729-15 15-15 4.733 0 9.18 2.263 11.994 6h-.994v7.631c0 3.034.815 5.905 2.246 8.395-.624 1.177-1.382 2.248-2.257 3.195zm24.011-11.59c0 6.74-4.511 12.6-11 14.336-6.489-1.736-11-7.596-11-14.336v-5.631h1.343c3.59 0 6.983-1.282 9.657-3.63 2.673 2.348 6.066 3.63 9.657 3.63h1.343z"/><path d="m48 30.586-3.293-3.293-1.414 1.414 4.707 4.707 10.707-10.707-1.414-1.414z"/></g></g></svg>